<?xml version="1.0" encoding="UTF-8" standalone="no"?>
<!-- Created with Inkscape (http://www.inkscape.org/) -->

<svg
   xmlns:dc="http://purl.org/dc/elements/1.1/"
   xmlns:cc="http://creativecommons.org/ns#"
   xmlns:rdf="http://www.w3.org/1999/02/22-rdf-syntax-ns#"
   xmlns:svg="http://www.w3.org/2000/svg"
   xmlns="http://www.w3.org/2000/svg"
   xmlns:xlink="http://www.w3.org/1999/xlink"
   xmlns:sodipodi="http://sodipodi.sourceforge.net/DTD/sodipodi-0.dtd"
   xmlns:inkscape="http://www.inkscape.org/namespaces/inkscape"
   id="svg2"
   version="1.1"
   inkscape:version="0.48.1 r9760"
   width="1550"
   height="382"
   sodipodi:docname="winchester.svg">
  <metadata
     id="metadata8">
    <rdf:RDF>
      <cc:Work
         rdf:about="">
        <dc:format>image/svg+xml</dc:format>
        <dc:type
           rdf:resource="http://purl.org/dc/dcmitype/StillImage" />
        <dc:title></dc:title>
      </cc:Work>
    </rdf:RDF>
  </metadata>
  <defs
     id="defs6">
    <linearGradient
       inkscape:collect="always"
       id="linearGradient6083">
      <stop
         id="stop6087"
         offset="0"
         style="stop-color:#1a1a1a;stop-opacity:1" />
      <stop
         id="stop6085"
         offset="1"
         style="stop-color:#808080;stop-opacity:1;" />
    </linearGradient>
    <linearGradient
       inkscape:collect="always"
       id="linearGradient6073">
      <stop
         style="stop-color:#ffffff;stop-opacity:1;"
         offset="0"
         id="stop6075" />
      <stop
         style="stop-color:#ffffff;stop-opacity:0;"
         offset="1"
         id="stop6077" />
    </linearGradient>
    <linearGradient
       inkscape:collect="always"
       id="linearGradient6065">
      <stop
         style="stop-color:#ffffff;stop-opacity:1;"
         offset="0"
         id="stop6067" />
      <stop
         style="stop-color:#ffffff;stop-opacity:0;"
         offset="1"
         id="stop6069" />
    </linearGradient>
    <linearGradient
       id="linearGradient5894">
      <stop
         style="stop-color:#000000;stop-opacity:1;"
         offset="0"
         id="stop5896" />
      <stop
         style="stop-color:#000000;stop-opacity:0;"
         offset="1"
         id="stop5898" />
    </linearGradient>
    <linearGradient
       id="linearGradient5876">
      <stop
         style="stop-color:#453748;stop-opacity:1;"
         offset="0"
         id="stop5878" />
      <stop
         id="stop5886"
         offset="0.29822287"
         style="stop-color:#333333;stop-opacity:1" />
      <stop
         id="stop5884"
         offset="0.81746727"
         style="stop-color:#221c24;stop-opacity:1" />
      <stop
         style="stop-color:#453748;stop-opacity:1;"
         offset="1"
         id="stop5880" />
    </linearGradient>
    <linearGradient
       inkscape:collect="always"
       id="linearGradient5868">
      <stop
         style="stop-color:#1a1a1a;stop-opacity:1;"
         offset="0"
         id="stop5870" />
      <stop
         style="stop-color:#4d4d4d;stop-opacity:1"
         offset="1"
         id="stop5872" />
    </linearGradient>
    <linearGradient
       id="linearGradient5858">
      <stop
         style="stop-color:#000000;stop-opacity:1;"
         offset="0"
         id="stop5860" />
      <stop
         id="stop5866"
         offset="0.5"
         style="stop-color:#000000;stop-opacity:0;" />
      <stop
         style="stop-color:#000000;stop-opacity:1;"
         offset="1"
         id="stop5862" />
    </linearGradient>
    <linearGradient
       inkscape:collect="always"
       id="linearGradient5794">
      <stop
         style="stop-color:#000000;stop-opacity:1;"
         offset="0"
         id="stop5796" />
      <stop
         style="stop-color:#000000;stop-opacity:0;"
         offset="1"
         id="stop5798" />
    </linearGradient>
    <linearGradient
       id="linearGradient5754">
      <stop
         style="stop-color:#483737;stop-opacity:1;"
         offset="0"
         id="stop5756" />
      <stop
         id="stop5768"
         offset="0.0625"
         style="stop-color:#483737;stop-opacity:0;" />
      <stop
         id="stop5764"
         offset="0.53250676"
         style="stop-color:#483737;stop-opacity:0.16080402;" />
      <stop
         id="stop5762"
         offset="0.92596877"
         style="stop-color:#483737;stop-opacity:0;" />
      <stop
         style="stop-color:#483737;stop-opacity:1;"
         offset="1"
         id="stop5758" />
    </linearGradient>
    <linearGradient
       id="linearGradient4665">
      <stop
         style="stop-color:#000000;stop-opacity:1;"
         offset="0"
         id="stop4667" />
      <stop
         style="stop-color:#000000;stop-opacity:0;"
         offset="1"
         id="stop4669" />
    </linearGradient>
    <linearGradient
       id="linearGradient3839">
      <stop
         style="stop-color:#e3e2db;stop-opacity:0;"
         offset="0"
         id="stop3841" />
      <stop
         id="stop3849"
         offset="0.25"
         style="stop-color:#e3e2db;stop-opacity:0;" />
      <stop
         id="stop3847"
         offset="0.58823216"
         style="stop-color:#e3e2db;stop-opacity:0.49803922;" />
      <stop
         style="stop-color:#e3e2db;stop-opacity:0;"
         offset="0.75"
         id="stop3851" />
      <stop
         style="stop-color:#e3e2db;stop-opacity:0;"
         offset="1"
         id="stop3843" />
    </linearGradient>
    <linearGradient
       id="linearGradient3010">
      <stop
         style="stop-color:#f1e6d2;stop-opacity:1"
         offset="0"
         id="stop3012" />
      <stop
         id="stop3018"
         offset="0.5"
         style="stop-color:#aa8800;stop-opacity:1;" />
      <stop
         style="stop-color:#d1ad83;stop-opacity:1"
         offset="1"
         id="stop3014" />
    </linearGradient>
    <linearGradient
       id="linearGradient3906">
      <stop
         style="stop-color:#eec995;stop-opacity:1;"
         offset="0"
         id="stop3908" />
      <stop
         style="stop-color:#fff6d5;stop-opacity:1"
         offset="1"
         id="stop3910" />
    </linearGradient>
    <linearGradient
       inkscape:collect="always"
       id="linearGradient2997">
      <stop
         style="stop-color:#a7470f;stop-opacity:1"
         offset="0"
         id="stop2999" />
      <stop
         style="stop-color:#61311a;stop-opacity:1"
         offset="1"
         id="stop3001" />
    </linearGradient>
    <linearGradient
       id="linearGradient3805">
      <stop
         style="stop-color:#2b2200;stop-opacity:0;"
         offset="0"
         id="stop3807" />
      <stop
         id="stop3813"
         offset="0.5"
         style="stop-color:#2b2200;stop-opacity:1;" />
      <stop
         style="stop-color:#2b2200;stop-opacity:0;"
         offset="1"
         id="stop3809" />
    </linearGradient>
    <linearGradient
       id="linearGradient4088">
      <stop
         id="stop4100"
         offset="0"
         style="stop-color:#221e1f;stop-opacity:1" />
      <stop
         style="stop-color:#45403d;stop-opacity:1;"
         offset="0.48894483"
         id="stop4104" />
      <stop
         id="stop4098"
         offset="0.61394483"
         style="stop-color:#666666;stop-opacity:1" />
      <stop
         id="stop4096"
         offset="0.80328733"
         style="stop-color:#28272a;stop-opacity:1" />
      <stop
         style="stop-color:#45403d;stop-opacity:1;"
         offset="1"
         id="stop4092" />
    </linearGradient>
    <linearGradient
       id="linearGradient3858">
      <stop
         style="stop-color:#211d1e;stop-opacity:1;"
         offset="0"
         id="stop3860" />
      <stop
         id="stop3866"
         offset="0.5"
         style="stop-color:#2b262a;stop-opacity:1" />
      <stop
         style="stop-color:#211d1e;stop-opacity:1;"
         offset="1"
         id="stop3862" />
    </linearGradient>
    <linearGradient
       id="linearGradient4049">
      <stop
         style="stop-color:#3d3334;stop-opacity:1;"
         offset="0"
         id="stop4051" />
      <stop
         id="stop4057"
         offset="0.5"
         style="stop-color:#887d79;stop-opacity:1" />
      <stop
         style="stop-color:#3d3334;stop-opacity:1;"
         offset="1"
         id="stop4053" />
    </linearGradient>
    <linearGradient
       id="linearGradient3822">
      <stop
         style="stop-color:#6c6061;stop-opacity:1;"
         offset="0"
         id="stop3824" />
      <stop
         id="stop3832"
         offset="0.25"
         style="stop-color:#605655;stop-opacity:1" />
      <stop
         id="stop3830"
         offset="0.5"
         style="stop-color:#938988;stop-opacity:1" />
      <stop
         style="stop-color:#999596;stop-opacity:1"
         offset="1"
         id="stop3826" />
    </linearGradient>
    <linearGradient
       id="linearGradient4262">
      <stop
         id="stop4264"
         offset="0"
         style="stop-color:#f1e6d2;stop-opacity:1" />
      <stop
         style="stop-color:#c8ab37;stop-opacity:1"
         offset="0.5"
         id="stop4266" />
      <stop
         id="stop4268"
         offset="1"
         style="stop-color:#d1ad83;stop-opacity:1" />
    </linearGradient>
    <linearGradient
       id="linearGradient3959">
      <stop
         style="stop-color:#604d46;stop-opacity:1;"
         offset="0"
         id="stop3961" />
      <stop
         id="stop3969"
         offset="0.06814073"
         style="stop-color:#674d4c;stop-opacity:1" />
      <stop
         id="stop3967"
         offset="0.5"
         style="stop-color:#e3dedb;stop-opacity:1" />
      <stop
         style="stop-color:#604d46;stop-opacity:1;"
         offset="1"
         id="stop3963" />
    </linearGradient>
    <linearGradient
       id="linearGradient4182">
      <stop
         style="stop-color:#1a1a1a;stop-opacity:0.49246231;"
         offset="0"
         id="stop4184" />
      <stop
         id="stop4190"
         offset="0.5"
         style="stop-color:#1a1a1a;stop-opacity:0;" />
      <stop
         style="stop-color:#1a1a1a;stop-opacity:0.59296483;"
         offset="1"
         id="stop4186" />
    </linearGradient>
    <linearGradient
       id="linearGradient3986">
      <stop
         style="stop-color:#e3dedb;stop-opacity:1;"
         offset="0"
         id="stop3988" />
      <stop
         style="stop-color:#e3dedb;stop-opacity:0.56281406;"
         offset="1"
         id="stop3990" />
    </linearGradient>
    <linearGradient
       id="linearGradient4231">
      <stop
         style="stop-color:#391a10;stop-opacity:1;"
         offset="0"
         id="stop4233" />
      <stop
         style="stop-color:#391a10;stop-opacity:0;"
         offset="1"
         id="stop4235" />
    </linearGradient>
    <linearGradient
       id="linearGradient4351">
      <stop
         style="stop-color:#666666;stop-opacity:1"
         offset="0"
         id="stop4353" />
      <stop
         style="stop-color:#999999;stop-opacity:1;"
         offset="1"
         id="stop4355" />
    </linearGradient>
    <linearGradient
       id="linearGradient4695">
      <stop
         style="stop-color:#f1e6d2;stop-opacity:1"
         offset="0"
         id="stop4697" />
      <stop
         id="stop4699"
         offset="0.43133876"
         style="stop-color:#c8ab37;stop-opacity:1" />
      <stop
         style="stop-color:#d1ad83;stop-opacity:1"
         offset="1"
         id="stop4701" />
    </linearGradient>
    <linearGradient
       id="linearGradient5459">
      <stop
         style="stop-color:#837373;stop-opacity:1;"
         offset="0"
         id="stop5461" />
      <stop
         style="stop-color:#837373;stop-opacity:0;"
         offset="1"
         id="stop5463" />
    </linearGradient>
    <linearGradient
       inkscape:collect="always"
       xlink:href="#linearGradient2997"
       id="linearGradient5460"
       gradientUnits="userSpaceOnUse"
       x1="495.29422"
       y1="1034.5312"
       x2="120.76521"
       y2="1317.3057" />
    <linearGradient
       inkscape:collect="always"
       xlink:href="#linearGradient3805"
       id="linearGradient5499"
       x1="51.596889"
       y1="1264.1855"
       x2="523.47583"
       y2="1146.0322"
       gradientUnits="userSpaceOnUse" />
    <linearGradient
       inkscape:collect="always"
       xlink:href="#linearGradient3805"
       id="linearGradient5744"
       gradientUnits="userSpaceOnUse"
       gradientTransform="matrix(0.98002013,0.19889833,-0.19889833,0.98002013,904.2711,-115.47463)"
       x1="51.596889"
       y1="1264.1855"
       x2="523.47583"
       y2="1146.0322" />
    <linearGradient
       inkscape:collect="always"
       xlink:href="#linearGradient2997"
       id="linearGradient5750"
       gradientUnits="userSpaceOnUse"
       x1="782.10889"
       y1="1216.0549"
       x2="786.164"
       y2="1105.8544"
       gradientTransform="translate(7.24671,-3.8200159)" />
    <linearGradient
       inkscape:collect="always"
       xlink:href="#linearGradient4088"
       id="linearGradient5776"
       x1="1204.4852"
       y1="1110.7939"
       x2="1204.5933"
       y2="1137.048"
       gradientUnits="userSpaceOnUse"
       spreadMethod="reflect" />
    <linearGradient
       inkscape:collect="always"
       xlink:href="#linearGradient4695"
       id="linearGradient5786"
       x1="970.15186"
       y1="1118.1841"
       x2="990.60144"
       y2="1118.1841"
       gradientUnits="userSpaceOnUse" />
    <linearGradient
       inkscape:collect="always"
       xlink:href="#linearGradient4695"
       id="linearGradient5790"
       gradientUnits="userSpaceOnUse"
       x1="970.15186"
       y1="1118.1841"
       x2="990.60144"
       y2="1118.1841"
       gradientTransform="translate(404.88142,1.2050043)" />
    <linearGradient
       inkscape:collect="always"
       xlink:href="#linearGradient5794"
       id="linearGradient5800"
       x1="973.86523"
       y1="1262.7845"
       x2="980.46136"
       y2="1098.1007"
       gradientUnits="userSpaceOnUse" />
    <linearGradient
       inkscape:collect="always"
       xlink:href="#linearGradient5868"
       id="linearGradient5874"
       x1="586.0351"
       y1="1162.6112"
       x2="502.56598"
       y2="1234.9114"
       gradientUnits="userSpaceOnUse" />
    <linearGradient
       inkscape:collect="always"
       xlink:href="#linearGradient5876"
       id="linearGradient5882"
       x1="472.93756"
       y1="1129.3383"
       x2="726.7821"
       y2="1129.3383"
       gradientUnits="userSpaceOnUse" />
    <linearGradient
       inkscape:collect="always"
       xlink:href="#linearGradient5894"
       id="linearGradient5900"
       x1="716.87207"
       y1="1123.014"
       x2="705.79523"
       y2="1122.73"
       gradientUnits="userSpaceOnUse" />
    <linearGradient
       inkscape:collect="always"
       xlink:href="#linearGradient6065"
       id="linearGradient6071"
       x1="577.23022"
       y1="1044.9497"
       x2="608.9707"
       y2="1136.53"
       gradientUnits="userSpaceOnUse" />
    <linearGradient
       inkscape:collect="always"
       xlink:href="#linearGradient6073"
       id="linearGradient6079"
       x1="659.7132"
       y1="1210.6619"
       x2="645.74121"
       y2="1127.1149"
       gradientUnits="userSpaceOnUse" />
    <radialGradient
       inkscape:collect="always"
       xlink:href="#linearGradient6083"
       id="radialGradient6089"
       cx="675.17664"
       cy="1113.0652"
       fx="675.17664"
       fy="1113.0652"
       r="26.698088"
       gradientTransform="matrix(2.6480658,0,0,2.2557852,-1104.5489,-1396.0111)"
       gradientUnits="userSpaceOnUse" />
  </defs>
  <sodipodi:namedview
     pagecolor="#ffffff"
     bordercolor="#666666"
     borderopacity="1"
     objecttolerance="10"
     gridtolerance="10"
     guidetolerance="10"
     inkscape:pageopacity="0"
     inkscape:pageshadow="2"
     inkscape:window-width="1280"
     inkscape:window-height="969"
     id="namedview4"
     showgrid="false"
     inkscape:zoom="0.22005321"
     inkscape:cx="888.38693"
     inkscape:cy="-468.56181"
     inkscape:window-x="0"
     inkscape:window-y="26"
     inkscape:window-maximized="1"
     inkscape:current-layer="svg2" />
  <g
     id="g6243"
     transform="translate(13.633066,-1013.3913)">
    <path
       sodipodi:nodetypes="ccccccsccscccccsssccscssccccscccccccssscc"
       inkscape:connector-curvature="0"
       id="path5807"
       d="m 642.19406,1155.0241 c -10.7435,0.333 -24.5733,0.9296 -32.3438,1.4062 -2.4784,0.1521 -5.3217,0.2545 -8.25,0.3438 l -1.5,3.625 c 1.7218,-0.1438 3.3396,-0.2659 4.5938,-0.3125 0.7371,-0.027 1.3741,-0.062 1.9374,-0.062 3.9444,-0.012 3.9903,1.2148 4.8438,11.9687 1.1413,14.3802 -4.293,24.6592 -16.09375,30.4688 -5.7872,2.849 -7.5927,3.2303 -17.25,3.5937 -11.691,0.4401 -15.23995,-0.3715 -22.28125,-5.0312 -2.1436,-1.4186 -5.03245,-4.4939 -6.40625,-6.8438 -4.48793,-9.0974 -6.81215,-18.4621 -10.90625,-27.5 -1.3829,0.4885 -2.78657,0.9561 -4.1875,1.4063 -3.71264,1.3823 -7.63837,2.7913 -11.25,4.2187 2.19223,5.0012 0.43185,0.5322 3.0625,7.3438 0.4133,0.01 0.5601,0.1788 0.1875,0.5625 -0.55,0.5664 -5.05,2.5969 -10,4.5 -4.95,1.9031 -15.075,5.8045 -22.5,8.6875 -7.425,2.883 -16.60635,6.344 -20.40625,7.6875 -10.9209,3.8614 -19.8505,8.1943 -22.9375,11.125 -9.3442,8.8706 -10.00985,23.9843 -1.46875,33.6875 5.6544,6.4238 8.93,7.9075 17.3125,7.8437 6.2755,-0.048 9.1734,-0.8985 28,-8.0937 43.6715,-16.6905 45.051,-17.2803 50.0625,-21.9375 3.4027,-3.1621 7.3232,-3.8398 20.4375,-3.4375 18.48569,0.4982 34.9856,2.2408 48.9062,-11.2188 5.7446,-5.779 6.3113,-6.484 9.3438,-12.2187 1.8397,-7.0298 5.3657,-20.9828 4.9062,-26.9375 -0.1567,-1.8328 0.056,-2.5223 0.5626,-1.7813 0.5876,0.8593 1.7136,0.1794 3.8124,-2.3437 2.8606,-3.4386 7.3555,-6.455 10.4688,-7.0313 0.1937,-0.036 0.9022,-0.1094 1.9062,-0.1875 z m -115.4688,33.375 c 4.44804,-0.4473 25.64702,9.4003 16.875,28.0312 -1.2375,2.4496 -3.64805,5.3747 -5.34375,6.5 -1.6958,1.1254 -16.9958,7.2561 -34,13.625 -31.68,11.8657 -35.9547,13.1109 -40.5625,11.8125 -8.7499,-2.4655 -14.0971,-9.1342 -14.6875,-18.4062 -0.4439,-6.9723 0.8505,-10.3919 5.5,-14.6875 4.4088,-4.0734 65.67895,-26.875 72.21875,-26.875 z"
       style="fill:url(#linearGradient5874)" />
    <path
       inkscape:connector-curvature="0"
       id="path5816"
       d="m 578.9386,1148.2468 -7.34375,0.3437 c -1.61587,0.2768 -3.07822,0.7172 -4.9375,1.375 -3.2486,1.1494 -6.038,2.0938 -6.1875,2.0938 -0.37073,0 -1.41262,-1.0276 -2.25,-2.0625 l -1.28125,0.5 c 0.0637,0.2448 0.0877,0.5094 0.0937,0.8125 0.0182,0.9029 -7.20659,4.1791 -15.28125,7.0312 l 3.3125,7.3125 c 0.03,-0.034 0.0639,-0.038 0.125,0 -0.53125,0.6812 18.98509,-7.5012 18.21875,-6.5312 -2.448,3.0184 -4.60045,13.08 -3.90625,18.3125 0.7577,5.7121 5.16345,14.625 7.21875,14.625 1.7324,0 1.66745,-0.93 -0.28125,-5.5938 -2.1188,-5.0711 -2.02985,-14.2056 0.15625,-18.8125 0.9519,-2.0062 1.9278,-3.4471 2.1875,-3.1875 0.2596,0.2597 3.4693,-1.6857 7.125,-4.3125 3.6559,-2.6267 7.11935,-5.0649 7.71875,-5.4062 1.09709,-0.6245 11.9779,-2.0439 19.68755,-2.6875 l 1.5,-3.625 c -7.13522,0.2175 -14.87003,0.2581 -19.75005,0.031 -2.4559,-0.1142 -4.41887,-0.1826 -6.125,-0.2188 z"
       style="fill:#1a1a1a" />
    <g
       id="g5501">
      <path
         style="fill:url(#linearGradient5460);fill-opacity:1"
         d="m 501.8125,1121.5938 c -44.78168,16.3665 -88.8551,35.4477 -135.125,47.2812 -22.31811,4.2173 -39.58219,-12.8047 -57.45452,-22.6651 -21.73951,-4.5211 -44.28437,1.3012 -66.23298,2.4151 -74.07112,8.0383 -148.324556,14.9445 -222.125,25.125 -6.913216,17.0297 4.36095,38.5461 5.135132,57.0605 6.985457,37.7165 10.230325,75.9972 16.021118,113.877 6.368765,8.9613 17.999163,2.1192 27.136071,-1.17 32.035699,-9.8392 62.974579,-20.8617 94.332679,-32.2987 55.10669,-19.0183 110.17228,-39.3814 165,-58.4376 26.80128,-10.0887 54.35673,-19.9677 81.34102,-30.1355 19.13509,-6.762 39.13264,-15.3095 57.25273,-22.3019 10.65451,-3.2571 23.86945,-9.2418 34.88159,-12.9032 13.48638,1.2834 12.54123,-11.1939 14.74341,-11.9094 7.84892,-2.3017 34.45533,-13.696 11.28125,-6.1874 -8.36695,5.4624 -20.34562,4.1571 -5.75,-2 13.21516,-2.276 3.97474,-13.9757 2.43587,-21.6991 -3.10006,-4.6261 -2.31155,-16.7646 -7.85848,-16.6637 -7.99647,1.234 -17.06519,8.6644 -24.07123,2.9858 -7.64233,-0.6455 -42.0371,13.8097 -20.47674,4.3542 9.90662,-3.6163 27.36104,-10.3535 29.53308,-14.7272 z"
         id="path3043"
         inkscape:connector-curvature="0" />
      <path
         style="opacity:0.75585279;fill:url(#linearGradient5499);fill-opacity:1;stroke:none"
         d="m 501.75,1121.7188 c -0.22907,0.052 -0.45843,0.1037 -0.6875,0.1562 -2.25611,0.8262 -4.49703,1.6616 -6.75,2.5 2.14684,-0.4849 4.29066,-0.9839 6.4375,-1.4688 0.41698,-0.409 0.79011,-0.8089 1,-1.1874 z m 17.46875,8.25 -45.21875,10.5 c -19.28126,4.3969 -38.56231,8.7919 -57.84375,13.1874 -1.47489,0.5163 -2.96005,1.0232 -4.4375,1.5313 20.57928,-4.706 41.16915,-9.3954 61.75,-14.0937 15.37296,-3.5631 30.75231,-7.124 46.125,-10.6876 -0.11876,-0.1501 -0.24511,-0.3088 -0.375,-0.4374 z m -27.25,1.9687 c -0.5771,0.016 -1.25428,0.1036 -2,0.2187 -1.89706,0.4345 -3.79044,0.8781 -5.6875,1.3126 -6.31715,1.7155 -13.86268,4.3939 -17.21875,5.5312 9.02334,-2.0397 18.03902,-4.0865 27.0625,-6.125 -0.46174,-0.2602 -0.92916,-0.5449 -1.375,-0.9062 -0.23882,-0.02 -0.4927,-0.039 -0.78125,-0.031 z M 473.125,1136 c -7.86696,1.801 -15.72666,3.6062 -23.59375,5.4062 -3.49251,1.3266 -7.0009,2.6301 -10.5,3.9376 8.82361,-1.9959 17.64496,-3.9741 26.46875,-5.9688 0.007,-0 0.0238,-0.027 0.0312,-0.031 0.67686,-0.3576 2.75121,-1.2776 6.75,-3.0313 0.25969,-0.095 0.5741,-0.2135 0.84375,-0.3125 z m 48.875,0.9688 c -61.80049,14.4901 -123.60042,29.0247 -185.375,43.625 -87.81059,20.6887 -175.67773,41.1213 -263.90625,59.9687 -14.485808,3.1051 -28.973451,6.2173 -43.46875,9.2813 0.07442,0.4772 0.145167,0.9601 0.21875,1.4374 13.951289,-3.0263 27.897843,-6.0442 41.84375,-9.0937 88.20326,-19.1614 176.11342,-39.5401 264,-60.0937 62.32576,-14.6101 124.69489,-29.0302 187.125,-43.1876 -0.14259,-0.6521 -0.29312,-1.2888 -0.4375,-1.9374 z m -235.34375,7.625 c -2.56869,0.093 -5.14349,0.2909 -7.71875,0.5 -78.44744,17.8688 -156.89847,35.6969 -235.375,53.4374 -7.521372,1.7 -15.040991,3.3944 -22.5625,5.0938 0.107399,0.4892 0.20194,0.979 0.3125,1.4688 6.885638,-1.577 13.770514,-3.1735 20.65625,-4.75 80.04659,-18.3218 160.11119,-36.5275 240.1875,-54.7188 1.50037,-0.3406 2.99962,-0.6906 4.5,-1.0312 z m 13.3125,0.2812 c -54.42206,12.4392 -108.82822,24.9518 -163.21875,37.5312 -38.182636,8.8618 -76.343432,17.8435 -114.53125,26.6876 0.122444,0.523 0.221459,1.0398 0.34375,1.5624 37.657141,-8.9553 75.299593,-17.9966 112.96875,-26.9062 55.44297,-13.0416 110.93296,-25.9086 166.4375,-38.6875 -0.66647,-0.073 -1.33236,-0.1297 -2,-0.1875 z m 225.3125,2.9375 c -76.39798,17.5052 -152.78967,35.0109 -229.21875,52.375 -88.40675,20.111 -176.81601,40.1718 -265.25,60.1563 0.04197,0.2914 0.08328,0.5835 0.125,0.875 88.15464,-20.1836 176.31624,-40.2853 264.5,-60.3438 76.69784,-17.4706 153.42603,-34.795 230.15625,-52.125 -0.11293,-0.3194 -0.212,-0.6252 -0.3125,-0.9375 z M 221.875,1150.875 c -1.62573,0.1725 -3.24916,0.3594 -4.875,0.5312 -65.81797,14.9583 -131.632929,29.9018 -197.46875,44.7813 0.04514,0.2813 0.108446,0.5618 0.15625,0.8437 67.388625,-15.4271 134.78019,-30.8108 202.1875,-46.1562 z m 98.28125,2.0312 c -84.59834,19.912 -169.25343,39.5931 -254.25,57.75 -13.78831,2.9557 -27.578343,5.8929 -41.375,8.8126 0.09393,0.478 0.16232,0.9613 0.25,1.4374 13.242437,-2.8746 26.480985,-5.7616 39.71875,-8.6562 85.86179,-18.6527 171.44443,-38.4705 257,-58.4688 -0.44916,-0.2925 -0.89537,-0.5837 -1.34375,-0.875 z m 207.75,2.0313 c -6.82238,1.5664 -13.64796,3.1147 -20.46875,4.6875 -69.80437,15.9901 -139.61555,31.9614 -209.4375,47.875 -79.98975,18.2209 -159.98034,36.4107 -240,54.5 -8.709548,1.9685 -17.415255,3.9385 -26.125,5.9062 0.06847,0.4989 0.119598,1.0011 0.1875,1.5 8.114508,-1.8584 16.229094,-3.7358 24.34375,-5.5937 80.04657,-18.3219 160.11117,-36.5274 240.1875,-54.7187 69.64638,-15.8126 139.30513,-31.5761 208.96875,-47.3126 7.64738,-1.7157 15.29188,-3.4636 22.9375,-5.1874 -0.16839,-0.5533 -0.39176,-1.0926 -0.59375,-1.6563 z M 146.5,1158.8125 c -3.05319,0.3249 -6.10342,0.6409 -9.15625,0.9687 -26.3314,5.8863 -52.674566,11.6756 -79.0625,17.3126 -13.204719,2.8305 -26.412816,5.6701 -39.625,8.4687 -0.0079,0.4889 -0.0079,0.9761 0,1.4687 12.742427,-2.7674 25.480551,-5.527 38.21875,-8.3124 29.906245,-6.497 59.77373,-13.1702 89.625,-19.9063 z m 382.59375,0.375 -48.28125,11.2187 c -109.89758,25.0615 -219.80485,50.0383 -329.625,75.4376 -39.52703,9.1737 -79.027333,18.5129 -118.5625,27.6562 0.07221,0.5421 0.147081,1.0828 0.21875,1.625 39.045517,-9.2774 78.06885,-18.6686 117.125,-27.9062 109.99064,-25.8726 220.15428,-51.0711 330.3125,-76.2188 16.2909,-3.7759 32.58434,-7.5675 48.875,-11.3438 -0.0184,-0.1542 -0.038,-0.3121 -0.0625,-0.4687 z m -196.9375,1.3125 c -14.29848,3.2583 -28.60578,6.5011 -42.90625,9.75 -87.75301,19.9624 -175.50157,39.9119 -263.28125,59.75 0.01555,0.2696 0.02003,0.5441 0.03125,0.8125 0.0019,0.01 -0.0019,0.021 0,0.031 87.52875,-20.0388 175.09891,-39.9591 262.65625,-59.875 14.74326,-3.3583 29.4732,-6.714 44.21875,-10.0626 -0.23734,-0.1375 -0.48202,-0.267 -0.71875,-0.4062 z m 10.46875,5.3125 c -17.14226,3.9123 -34.29368,7.8426 -51.4375,11.75 -79.98975,18.221 -159.98033,36.4419 -240,54.5313 -7.990425,1.8059 -15.978166,3.6009 -23.96875,5.4062 0.08503,0.4894 0.166085,0.9792 0.25,1.4688 7.373979,-1.6888 14.750904,-3.3742 22.125,-5.0626 80.04657,-18.3218 160.11115,-36.5588 240.1875,-54.75 18.33796,-4.1637 36.6915,-8.3107 55.03125,-12.4687 -0.74046,-0.2734 -1.4556,-0.5705 -2.1875,-0.875 z m 8.34375,2.7187 c -68.88293,15.7201 -137.7561,31.4854 -206.59375,47.4063 -38.74644,8.9925 -77.465952,18.1241 -116.21875,27.0937 0.08763,0.5303 0.163559,1.0634 0.25,1.5938 38.258508,-9.095 76.48005,-18.2607 114.75,-27.3125 69.65437,-16.3844 139.38128,-32.4979 209.125,-48.5 -0.43739,-0.085 -0.87855,-0.1832 -1.3125,-0.2813 z m 178.15625,2.375 c -61.62092,14.4482 -123.21739,28.8797 -184.8125,43.4376 -87.81058,20.6889 -175.67774,41.1213 -263.90625,59.9687 -15.451843,3.3122 -30.911916,6.6432 -46.375,9.9063 0.06258,0.4899 0.125164,0.9788 0.1875,1.4687 14.922676,-3.2337 29.833776,-6.4883 44.75,-9.75 88.20324,-19.1615 176.14466,-39.5401 264.03125,-60.0937 57.73751,-13.5343 115.51701,-26.8811 173.34375,-40.0313 0.01,-0.011 0.0214,-0.021 0.0312,-0.031 0.10881,-0.1134 0.21758,-0.209 0.34375,-0.25 2.79434,-0.8194 7.9497,-2.7639 12.40625,-4.625 z m -36.375,19.875 c -62.99709,14.4327 -125.97798,28.8383 -189,43.1563 -89.44126,20.3464 -178.9056,40.6591 -268.375,60.875 0.03646,0.291 0.05731,0.584 0.09375,0.875 89.20338,-20.4261 178.42291,-40.7653 267.65625,-61.0625 61.37016,-13.9792 122.76069,-27.8491 184.15625,-41.7188 1.83161,-0.7193 3.66341,-1.4328 5.46875,-2.125 z m -49.5625,19.0626 c -45.8301,10.4815 -91.66069,20.9586 -137.5,31.4062 -79.98975,18.221 -159.98033,36.4107 -240,54.5 -9.78849,2.2123 -19.586246,4.4137 -29.375,6.625 0.06393,0.5102 0.123478,1.021 0.1875,1.5312 9.198024,-2.1068 18.395522,-4.2377 27.59375,-6.3437 80.04662,-18.3217 160.11119,-36.5275 240.1875,-54.7187 43.37352,-9.8483 86.74304,-19.6829 130.125,-29.5 2.94787,-1.1679 5.85683,-2.3268 8.78125,-3.5 z m -29.15625,11.2812 c -85.08538,19.3994 -170.16224,38.8353 -255.1875,58.5 -40.6105,9.4252 -81.191229,18.9919 -121.8125,28.375 0.06976,0.5524 0.148754,1.1038 0.21875,1.6562 40.141184,-9.5306 80.25573,-19.1909 120.40625,-28.6874 84.13658,-19.791 168.36965,-39.1876 252.625,-58.4688 1.24459,-0.4413 2.49905,-0.9198 3.75,-1.375 z m -83.34375,30.8438 c -80.80153,18.9909 -161.66778,37.6904 -242.84375,55.0312 -16.521414,3.5415 -33.058933,7.0802 -49.59375,10.5625 0.06485,0.4996 0.122269,1.0004 0.1875,1.5 15.995936,-3.4621 31.98059,-6.9414 47.96875,-10.4375 78.3801,-17.0274 156.54772,-35.0316 234.65625,-53.25 2.47925,-0.8665 4.95921,-1.7324 7.4375,-2.5938 0.72467,-0.2727 1.46176,-0.54 2.1875,-0.8124 z m -80.0625,28.4062 c -70.31024,15.9803 -140.63786,31.9541 -210.96875,47.8438 0.03985,0.2918 0.08496,0.5832 0.125,0.875 68.74711,-15.7439 137.51423,-31.4061 206.28125,-47.0626 0.0125,-0 0.0187,-0.027 0.0312,-0.031 1.51173,-0.5413 3.01974,-1.0837 4.53125,-1.625 z m -60.53125,21.5625 c -38.98995,8.8591 -77.96963,17.6838 -116.96875,26.5 -10.798855,2.4407 -21.607054,4.8731 -32.40625,7.3125 0.07295,0.5097 0.145044,1.0216 0.21875,1.5312 10.197837,-2.336 20.395645,-4.6963 30.59375,-7.0312 36.12806,-8.2693 72.23855,-16.5174 108.375,-24.75 3.39569,-1.187 6.79231,-2.3679 10.1875,-3.5625 z m -40.0625,14.1563 c -36.16511,8.4281 -72.316039,16.9325 -108.5,25.2812 0.08243,0.5532 0.166548,1.1032 0.25,1.6562 32.994912,-7.8284 65.97819,-15.7129 98.96875,-23.5624 3.09047,-1.107 6.1883,-2.2571 9.28125,-3.375 z"
         id="path5464"
         inkscape:connector-curvature="0" />
      <path
         style="fill:#803300"
         d="m 294.90625,1145.7188 c 5.81707,-0.023 9.80624,0.4038 11.90625,1.2812 1.78351,0.7452 6.38243,4.0613 10.21875,7.3438 16.82803,14.3976 27.34922,18.3592 44.875,16.9062 10.92018,-0.9054 16.68757,-2.3463 40.03125,-10 10.96831,-3.5962 20.09453,-6.4052 20.28125,-6.2188 0.28924,0.2894 -12.32331,4.8869 -38.21875,13.875 -3.3,1.1456 -7.35,3.0884 -9,4.3438 -1.65,1.2554 -4.57067,3.5301 -6.46875,5.0625 -1.89808,1.5323 -3.17278,2.3514 -2.84375,1.8125 0.36988,-0.6058 -2.87842,-1.0464 -8.5,-1.1875 -9.29456,-0.2332 -9.99193,-0.4572 -23.6875,-7.0937 -7.26954,-3.5229 -10.17067,-5.3814 -16.6875,-10.8126 -9.01252,-7.5107 -12.54791,-8.6008 -26.375,-8.0312 -19.91503,0.8203 -28.89436,1.5548 -30.71875,2.5312 -1.09427,0.5857 -2.4133,0.6045 -3.4375,0.031 -1.05706,-0.5915 -1.8758,-0.5622 -2.28125,0.094 -0.34967,0.5656 -1.0038,0.7993 -1.4375,0.5313 -0.43369,-0.2681 -2.32169,-0.027 -4.1875,0.5313 -1.8658,0.5577 -6.525,1.1874 -10.375,1.4062 -9.62637,0.5471 -19.69374,1.5227 -21.5,2.0625 -1.62081,0.4845 -16.05819,2.2191 -25,3 -11.81749,1.0321 -13.76061,1.2187 -21.5,2.3125 -4.4,0.6218 -10.925,1.3661 -14.5,1.625 -17.74753,1.2852 -23.54763,1.786 -24.125,2.125 -0.34722,0.2038 -4.39722,0.5914 -9,0.875 -4.60278,0.2835 -10.4,0.7897 -12.875,1.125 -8.63673,1.1701 -11.54466,1.5106 -18,1.9688 -3.575,0.2533 -7.175,0.7129 -8,1.0312 -0.825,0.3183 -6.9,0.8027 -13.5,1.0938 -6.6,0.2907 -13.2375,0.6134 -14.75,0.6874 -1.5125,0.074 -2.75,0.4125 -2.75,0.75 0,0.3377 -1.8,0.5938 -4,0.5938 -2.2,0 -4,-0.3578 -4,-0.7812 0,-0.4237 -0.9,-0.5064 -2,-0.2188 -1.1,0.2877 -2,0.073 -2,-0.4688 0,-0.542 1.4625,-1.2566 3.25,-1.5937 1.7875,-0.3371 6.4154,-1.2783 10.28125,-2.0625 3.86585,-0.7841 10.61585,-1.7363 15,-2.125 4.38415,-0.3886 8.23111,-0.8681 8.5625,-1.0625 0.52474,-0.3078 10.181271,-1.5136 51.40625,-6.4375 4.95,-0.5912 12.375,-1.5239 16.5,-2.0625 11.84959,-1.5473 92.75428,-10.1426 126.5,-13.4375 9.43871,-0.9216 17.08918,-1.3842 22.90625,-1.4062 z"
         id="path3037"
         inkscape:connector-curvature="0" />
      <path
         style="fill:#803300"
         d="m 510.8125,1172.2812 c 0.94061,0.01 1.6875,0.6494 1.6875,1.875 0,1.1127 -9.79602,6.5 -11.8125,6.5 -0.41001,0 -4.24627,1.35 -8.53125,3 -4.28499,1.6503 -8.54128,2.9513 -9.46875,2.9063 -1.93724,-0.094 0.22228,-1.0584 14,-6.3437 6.446,-2.473 10.20829,-4.5355 11.25,-6.125 0.79897,-1.2194 1.93439,-1.8201 2.875,-1.8126 z"
         id="path3031"
         inkscape:connector-curvature="0" />
      <path
         style="fill:#000000"
         d="m 527.65625,1192.7812 c -0.0312,0.023 -0.004,0.1074 0.0312,0.1876 0.35873,0.1047 0.72973,0.2152 0.9375,0.25 -0.55941,-0.319 -0.88983,-0.4941 -0.96875,-0.4376 z"
         id="path3019"
         inkscape:connector-curvature="0" />
      <path
         style="fill:#803300"
         d="m 444.78125,1199.6875 c 0.66884,0.02 -1.94363,1.402 -5.78125,3.0625 -3.83763,1.6604 -8.33763,4.0117 -10,5.25 -3.46867,2.5838 -13.9513,7.6562 -15.84375,7.6562 -0.69996,3e-4 -1.71394,0.4328 -2.25,0.9688 -0.53607,0.5361 -7.47607,3.2802 -15.4375,6.0938 -7.96144,2.8134 -16.49283,5.8238 -18.9375,6.6874 -2.44467,0.8638 -5.59467,2.1729 -7,2.9063 -1.40533,0.7334 -3.11754,1.3437 -3.8125,1.3437 -0.69496,0 -2.04496,0.4204 -3,0.9376 -0.95504,0.5168 -6.21875,2.3518 -11.71875,4.0937 -5.5,1.7419 -11.8,3.9677 -14,4.9375 -2.2,0.9698 -6.925,2.9001 -10.5,4.2812 -3.575,1.3814 -9.51869,3.685 -13.1875,5.125 -3.6688,1.4404 -7.29892,2.625 -8.0625,2.625 -0.76357,3e-4 -2.24488,0.6613 -3.3125,1.4688 -1.06762,0.8075 -2.74251,1.482 -3.71875,1.5 -0.97624,0.017 -4.12624,0.8797 -7,1.9375 -17.73807,6.5293 -22.01938,8.0965 -29.21875,10.5313 -9.05616,3.0626 -34.96363,12.3034 -38,13.5624 -1.1,0.4564 -5.375,2.037 -9.5,3.5 -4.125,1.4635 -8.4,3.0338 -9.5,3.5 -2.26734,0.9619 -19.48923,7.0297 -30,10.5626 -3.85,1.2937 -12.175,4.2207 -18.5,6.5 -6.325,2.2789 -18.475,6.5742 -27,9.5624 -8.525,2.9887 -18.425,6.5037 -22,7.8126 -3.575,1.3083 -17.3,5.8694 -30.5,10.125 -13.2,4.2554 -24.5625,7.9365 -25.25,8.1874 -0.78752,0.2878 -1.25,-0.4622 -1.25,-2.0312 0,-2.8687 0.55967,-3.1163 12.40625,-5.6562 2.70806,-0.5808 5.63306,-1.6834 6.5,-2.4376 0.86694,-0.7539 3.22753,-1.6691 5.25,-2.0312 2.02247,-0.3621 3.82247,-0.9799 4,-1.375 0.54027,-1.2024 6.86295,-4.2188 8.84375,-4.2188 1.02297,0 2.16816,-0.4749 2.53125,-1.0624 0.3631,-0.5874 1.18884,-0.8765 1.84375,-0.625 0.65491,0.251 2.04917,-0.1735 3.09375,-0.9376 1.04458,-0.7636 2.90588,-1.375 4.125,-1.375 1.21912,0 4.39925,-1.0879 7.0625,-2.4062 5.68596,-2.8145 11.21243,-4.9548 20.84375,-8.0938 3.85,-1.2545 7.9,-2.6123 9,-3 1.60778,-0.5665 1.70583,-0.4922 0.5,0.375 -2.50374,1.8013 -0.28852,1.2529 3.5,-0.875 1.95846,-1.0997 4.44798,-2 5.53125,-2 1.08327,0 1.96875,-0.4603 1.96875,-1 0,-0.5392 1.2375,-1.2612 2.75,-1.625 1.5125,-0.3632 4.4195,-1.5049 6.46875,-2.5312 2.04924,-1.0264 4.07424,-1.7805 4.5,-1.6875 0.89028,0.195 5.94033,-1.6827 8.5,-3.1563 0.95504,-0.5495 2.64254,-1 3.75,-1 1.10746,0 2.03125,-0.4499 2.03125,-1 0,-0.5498 0.86996,-1 1.9375,-1 1.06754,0 2.22258,-0.4499 2.5625,-1 0.33992,-0.5498 1.62413,-1 2.875,-1 1.25087,0 2.56277,-0.2813 2.90625,-0.625 0.88933,-0.889 13.53118,-5.3324 17.875,-6.2812 2.00836,-0.4387 5.60836,-1.8118 8,-3.0625 2.39163,-1.2507 6.59375,-2.919 9.34375,-3.6875 9.40444,-2.628 15.5,-4.7557 15.5,-5.4375 0,-0.3749 1.6875,-0.9975 3.75,-1.375 2.0625,-0.3776 5.55,-1.5123 7.75,-2.5313 9.24211,-4.2796 18.10016,-7.8437 19.5,-7.8437 1.83032,0 8.63333,-2.4866 15.5625,-5.6563 4.73674,-2.1664 12.53358,-4.7463 14.9375,-4.9374 1.05083,-0.084 6.2665,-2.0024 10.5,-3.875 1.375,-0.6085 3.2875,-1.7661 4.25,-2.5626 1.05462,-0.8725 1.75,-1.0042 1.75,-0.3437 0,0.6028 -0.47228,1.3735 -1.03125,1.7187 -0.55899,0.3457 -0.78271,1.0113 -0.5,1.4688 0.28271,0.4574 5.14249,-0.893 10.78125,-3 15.48204,-5.785 52.4991,-19.2215 89.75,-32.5938 12.925,-4.6394 24.97509,-9.1007 26.78125,-9.9062 1.80616,-0.8055 3.83116,-1.4575 4.5,-1.4375 z"
         id="path3001"
         inkscape:connector-curvature="0" />
    </g>
    <path
       inkscape:connector-curvature="0"
       id="path5654"
       d="m 516.49084,1075.5717 c -0.16306,0.01 -0.30989,0.045 -0.4375,0.094 -1.37523,0.5276 -0.98979,1.2928 2.25,4.375 3.5652,3.3913 10.375,12.2977 10.375,13.5937 0,0.2929 -2.66715,2.3315 -5.90625,4.5313 -7.03548,4.7776 -14.08498,12.602 -17.84375,19.7812 -0.1378,0.2632 -0.24563,0.4791 -0.375,0.7188 -0.57894,0.2773 -1.16919,0.5388 -1.75,0.8124 14.74785,4.8373 19.78125,7.2188 19.78125,7.2188 l 20.875,-28.9375 1.71875,-11.4375 c -0.40866,0.4014 -0.75551,0.7783 -1.0625,1.125 -0.25986,0.2382 -0.51316,0.4534 -0.78125,0.7188 -0.77273,0.7644 -1.57155,1.6358 -2.40625,2.5312 -2.20534,-1.7551 -5.61492,-4.0887 -9.90625,-6.75 -2.84175,-1.7624 -7.01787,-4.4859 -9.25,-6.0625 -2.17831,-1.5386 -4.13986,-2.386 -5.28125,-2.3125 z"
       style="fill:#1a1a1a" />
    <path
       sodipodi:nodetypes="ccccccccccccccccscccccccccssccscsccccccccsccccccccccccccccccc"
       inkscape:connector-curvature="0"
       id="path5727"
       d="m 1426.7975,1063.987 -0.062,0.062 -0.5938,0 -0.3124,1.0312 -1.25,1.375 c -1.2221,1.3641 -2.4594,3.7266 -2.75,5.25 -0.952,4.9842 -1.2087,7.0404 -2.3126,8.0938 l -7.5937,2.0625 c -1.0318,0.2389 -2.0059,0.5041 -2.75,0.75 -0.059,0.019 -0.1,0.043 -0.1563,0.062 -5.9877,1.0898 -6.6345,1.8157 -12.2187,3.3437 l -0.062,0 c -0.013,0.01 -0.019,0.026 -0.031,0.031 l -1.8126,0.5 c -0.087,-0.065 -0.1559,-0.1095 -0.25,-0.1875 -2.5962,-2.1554 -16.1379,-1.8689 -17.7812,0.375 -1.1805,1.6118 -3.5695,1.7019 -31.6562,1.25 -26.5426,-0.4269 -262.4933,-1.496 -331.1563,-1.5 -20.98999,0 -24.74989,-0.235 -24.74999,-1.4687 0,-3.2453 -14.28449,-3.2437 -16.65629,0 -0.16036,0.2193 -0.40053,0.4011 -0.78125,0.5625 l 0,0.5312 -3.15625,0 c -3.88031,0.2903 -13.31245,0.2414 -29.875,0 l -199.125,0 0,-0.625 -5.8125,0 c -20.9558,0 -24.59375,-0.2198 -24.59375,-1.4687 0,-0.7361 -3.41348,-1.194 -13.78125,-1.5 l 0.3125,2.0625 c 11.50869,-0.3408 12.46875,0.5104 12.46875,4.9375 l 0,3.9687 -6.8125,0 c -1.62763,0 -3.11229,-0.065 -4.40625,-0.2187 l 1.8125,12.2187 320.37498,-1.125 2.4688,24.25 c 0.084,-0.019 0.2641,-0.045 0.375,-0.062 l 0.094,1.1563 c -0.1276,-0.055 -0.2758,-0.094 -0.375,-0.1563 l 0.8437,8.1875 c 0.479,-0.4329 0.9896,-0.8089 1.5625,-1.0625 2.1122,-0.935 42.9226,-1.2207 178.4062,-1.2187 159.2263,0 175.9162,0.1776 178.125,1.625 3.195,2.0931 10.2081,2.1349 14.1563,0.094 2.7005,-1.3966 7.5131,-1.6435 34.25,-1.6563 17.1093,-0.01 31.3502,-0.036 31.625,-0.094 6.7402,0.1803 13.5882,0.055 18.7813,0.125 0.3238,-4.1075 0.2157,-8.03 0.2187,-11.625 10e-5,-6.9772 0.3507,-9.2814 1.6563,-10.5937 0.9162,-0.9216 1.8282,-1.5156 2.0312,-1.3125 0.7198,0.7198 1.2555,-5.9764 1,-12.7813 -0.3315,-3.6438 0.063,-7.2708 0.3125,-10.9062 -6.0259,5e-4 -11.2799,0.1562 -17.375,0.1562 l -0.5937,-4.75 c -0.3267,-2.6124 -0.9176,-6.5499 -1.3126,-8.75 l -0.7187,-4 -0.3125,-0.031 -1,-6.125 -26.7188,-0.5625 z"
       style="fill:url(#linearGradient5776);fill-opacity:1" />
    <path
       inkscape:connector-curvature="0"
       id="path5599"
       d="m 587.90625,1081.5625 c -12.91882,0.5465 -26.2175,-1.137 -38.86676,1.9519 -11.70902,8.0891 -18.47328,22.2249 -31.62488,28.7342 -17.27525,9.8352 -35.75047,17.3851 -54.47706,23.9702 1.13406,7.2554 11.34343,1.1132 16.4325,2.2713 13.09962,-0.6134 25.78598,-4.1304 37.6925,-9.5213 3.64583,10.8958 7.29167,21.7916 10.9375,32.6874 -6.53125,4.0625 -13.0625,8.1251 -19.59375,12.1876 2.76001,1.3905 4.85327,4.8901 7.89311,2.4149 10.69801,-3.9182 21.19618,-8.5233 32.01874,-12.0134 8.40569,-1.2643 16.64384,-4.5462 25.23376,-3.5921 20.08688,0.678 40.17376,1.3561 60.26064,2.0341 18.78207,-1.8656 37.75059,-2.3019 56.5625,-4.1875 6.82431,-0.7637 14.58244,-0.49 20.96875,-1.5625 0.87617,-2.4485 0.12414,-6.5251 0.375,-9.5989 0.0273,-21.6193 -0.0515,-43.2642 0.0312,-64.8386 -41.24613,-1.4572 -82.57077,-0.7383 -123.84375,-0.9373 z m 123.5,64.625 c 0.36669,4.4829 -0.2558,5.1692 0,0 z"
       style="fill:url(#linearGradient5882);fill-opacity:1;stroke:none" />
    <path
       inkscape:connector-curvature="0"
       id="path6023"
       d="m 525.00659,1170.976 c 9.5809,-3.0784 19.50592,-7.3725 19.48469,-8.43 -0.0487,-2.4247 -1.79014,-2.9434 -7.55777,-2.2512 -6.74301,0.8093 -10.42692,2.3664 -10.42692,4.4073 0,0.7416 -3.2625,2.6659 -7.25,4.2763 -5.65786,2.2849 -7.32208,3.4231 -7.57822,5.1826 -0.31461,2.1612 -0.211,2.1952 2.5,0.8201 1.55552,-0.789 6.42822,-2.5913 10.82822,-4.0051 z"
       style="opacity:0.3;fill:#ffffff" />
    <path
       inkscape:connector-curvature="0"
       id="path5941"
       d="m 709.18304,1143.6719 0.57593,3.5141 c 0.31811,1.9398 0.33748,3.9258 0.0241,4.4079 -0.31341,0.4821 -2.95299,1.1621 -5.84818,1.4915 -2.89519,0.3295 -7.30385,1.1759 -9.79611,1.9011 -5.97402,1.7386 -33.64985,3.4167 -58.5963,3.5341 -11.00407,0.052 -26.96686,0.3602 -35.49379,0.6874 -8.52694,0.3273 -21.12758,0.2112 -28.00125,-0.2663 -11.05158,-0.7677 -13.20292,-0.6504 -18.46701,1.0774 -3.27407,1.0747 -6.05302,1.9557 -6.20259,1.9523 -0.65176,-0.015 -3.3624,-3.3179 -3.345,-4.0777 0.0405,-1.7681 14.33757,-2.9415 22.51725,-1.8599 14.22819,1.8815 34.03312,1.4846 97.7251,-1.8876 18.29225,-0.9684 22.1753,-1.9458 31.06155,-7.7907 1.3964,-0.9185 5.09953,-1.9068 8.2085,-2.1876 l 5.63784,-0.496 z"
       style="opacity:0.3779264;fill:url(#linearGradient6079)" />
    <path
       inkscape:connector-curvature="0"
       id="path5911"
       d="m 701.62146,1084.2959 c 7.8974,-0.014 8.56956,1.1351 8.56956,5.0313 l 0,3.9687 -6.68919,0 c -3.83458,0 -7.19587,-0.4824 -7.86056,-1.1562 -1.39431,-1.4135 -141.67966,-1.2317 -144.29533,0.1875 -0.40652,0.2205 -1.46934,1.4739 -2.83597,3.25 l -2.55853,-2.125 c 1.85497,0.4978 2.15303,-0.6811 -0.0617,-1.9375 -1.32611,-0.7524 -1.1027,-1.3072 1.54129,-3.5625 l 3.1134,-2.6563 63.31609,0 c 34.81613,-0.01 69.55942,-0.3091 77.2185,-0.6562 4.48384,-0.2033 7.90993,-0.3393 10.5424,-0.3438 z"
       style="opacity:0.3779264;fill:url(#linearGradient6071)" />
    <path
       style="fill:#000000"
       d="m 796.90931,1317.751 c -0.0312,0.023 -0.004,0.1074 0.0312,0.1876 0.35873,0.1047 0.72973,0.2152 0.9375,0.25 -0.55941,-0.319 -0.88983,-0.4941 -0.96875,-0.4376 z"
       id="path5576"
       inkscape:connector-curvature="0" />
    <path
       inkscape:connector-curvature="0"
       id="path5532"
       d="m 958.21546,1099.3675 c 5.47899,-0.062 23.73277,0.522 8.99859,0.9999 -83.48035,0.8273 -166.97618,0.5661 -250.45592,-0.2738 -9.80509,-0.1374 6.25743,-0.6596 -2.76439,-0.5074 -5.3737,-1.3597 -2.12428,5.8242 -2.94518,8.9753 0.14939,16.1332 0.29877,32.2665 0.44815,48.3997 16.8372,-0.5279 33.80576,-0.4024 50.561,-1.053 7.94953,0.8953 15.43091,-0.5726 24.28275,-0.3844 67.4697,-0.6302 134.9252,-2.8708 202.38968,-3.3839 10.31063,-4.7186 23.89896,-0.2656 32.82876,-7.6083 2.8008,-4.5823 2.2693,-10.1599 3.3125,-15.2573 -0.2619,-1.9076 1.4264,-7.0703 1.3755,-10.5626 -1.8007,1.5449 0.412,-2.602 -1.984,-5.5967 -2.1376,-3.0875 -1.3503,-10.3099 -5.6722,-10.3093 -6.8295,-0.6836 -20.83679,0.2789 -23.2746,-1.8221 7.541,-1.1972 20.4648,1.5622 24.8192,0.4245 -1.0769,-3.908 -7.088,-0.8828 -10.2551,-1.8538 -6.034,-0.02 -12.06804,-0.041 -18.10204,-0.061 -2.89182,2.6466 -9.44303,-1.7579 -14.15262,0.3098 -3.02982,-0.42 -7.32948,-0.4553 -11.21411,-0.4056 -2.73169,-0.01 -5.46581,-0.018 -8.19597,-0.03 z"
       style="fill:url(#linearGradient5750);fill-opacity:1" />
    <path
       id="path5530"
       d="m 1020.0905,1134.3362 0,3.4063 c 0,2.0587 -0.5863,3.6303 -1.4688,3.9687 -0.8022,0.308 -6.8769,0.6314 -13.5,0.7188 l -11.96874,0.1562 0.21875,-5.1874 c 0.765,-2.2488 3.39925,-2.5627 10.56249,-1.875 3.6676,0.3519 8.7937,0.2545 11.4063,-0.25 l 4.75,-0.9376 z"
       style="fill:#803300"
       inkscape:connector-curvature="0" />
    <path
       id="path5528"
       d="m 943.99671,1138.305 c 12.57485,-0.052 23.85265,0.1119 24.53125,0.5312 0.586,0.3622 2.2996,0.5339 3.8125,0.375 2.5417,-0.2663 2.75,-0.023 2.75,3.2813 l 0,3.5937 -31.25,0 c -17.18752,0 -37.1,0.2779 -44.25,0.5938 l -13,0.5625 8,-3.75 c 6.62365,-3.0958 9.5484,-3.8469 17,-4.4063 5.95541,-0.4466 19.8314,-0.7292 32.40625,-0.7812 z"
       style="fill:#803300"
       inkscape:connector-curvature="0" />
    <path
       inkscape:connector-curvature="0"
       id="path5570"
       d="m 1015.8092,1099.5238 c -0.625,0.015 -1.25,0.016 -1.875,0.031 -1.2733,0.1478 -2.5236,0.2753 -3.5625,0.094 -6.5842,0.1591 -13.16576,0.3398 -19.74999,0.5 -0.93284,0.3021 -2.04849,0.2461 -3.28125,0.062 -0.0208,6e-4 -0.0417,-5e-4 -0.0625,0 -61.12176,1.4883 -122.25696,3.0338 -183.375,4.6876 -30.91949,0.8602 -61.82938,1.8003 -92.75,2.6874 -0.0164,0.3499 -0.018,0.6778 -0.0937,0.9688 l 0,0.4688 c 30.46122,-1.0296 60.90586,-2.0553 91.375,-3.0313 71.52158,-2.2029 143.06074,-4.127 214.59364,-5.9375 -0.4117,-0.1703 -0.8129,-0.3487 -1.2187,-0.5312 z m -237.65624,1.0937 c -22.44698,0.5137 -44.89645,1.0348 -67.34375,1.5313 -0.002,0.4358 0.0512,0.9265 0.0937,1.4062 37.64954,-0.932 75.28746,-1.8504 112.9375,-2.75 -15.22689,-0.046 -30.46097,-0.092 -45.6875,-0.1875 z m 244.31254,7.1563 c -7.7069,0.2435 -15.4185,0.4731 -23.12504,0.7187 -90.1711,2.81 -180.34806,5.3589 -270.5625,6.2813 -5.88605,0.064 -11.76952,0.1245 -17.65625,0.1874 l 0,1.3438 c 5.32306,-0.073 10.64473,-0.1387 15.96875,-0.2188 90.25214,-1.2351 180.4688,-3.7437 270.6875,-6.4062 8.33704,-0.2504 16.66284,-0.4751 24.99994,-0.7188 -0.094,-0.4021 -0.2155,-0.7889 -0.3124,-1.1874 z m 3,10.1874 c -23.2493,0.5607 -46.49971,1.1176 -69.75004,1.6563 -81.49511,1.9109 -163.00506,3.7539 -244.5,5.5625 l 0,0.875 c 81.24894,-2.0044 162.49622,-3.9714 243.75,-5.875 23.51498,-0.5581 47.01604,-1.0895 70.53124,-1.625 -0.01,-0.1646 -0.038,-0.3568 -0.031,-0.5938 z m -0.1563,7.5313 c -23.0549,0.561 -46.10136,1.1374 -69.15624,1.6875 -81.61986,1.9376 -163.25214,3.8206 -244.875,5.625 l 0,1.4375 c 81.06005,-2.0062 162.12419,-3.9043 243.1875,-5.7813 23.53253,-0.5419 47.06084,-1.062 70.59374,-1.5937 0.071,-0.4282 0.1585,-0.8982 0.25,-1.375 z m -0.5625,4.5313 c -73.37145,1.7619 -146.72512,3.5461 -220.09374,5.5312 -31.09822,0.8653 -62.21156,1.8217 -93.3125,2.7188 l 0,1.4687 c 30.6094,-1.0421 61.23279,-2.1133 91.84375,-3.0937 73.81426,-2.2736 147.63843,-4.2335 221.46869,-6.0938 0.028,-0.1775 0.063,-0.3546 0.094,-0.5312 z m -2.125,12.375 c -7.4797,0.2351 -14.9572,0.4491 -22.4375,0.6874 -90.17109,2.8101 -180.34806,5.3589 -270.56249,6.2813 -6.05843,0.066 -12.12686,0.1211 -18.1875,0.1875 l 0,1.375 c 5.48055,-0.08 10.95592,-0.1675 16.4375,-0.25 90.25214,-1.2352 180.50005,-3.7125 270.71875,-6.375 7.83114,-0.2352 15.66864,-0.4591 23.50004,-0.6875 0.2052,-0.4047 0.3673,-0.8017 0.5312,-1.2187 z"
       style="opacity:0.75585279;fill:url(#linearGradient5744);fill-opacity:1;stroke:none" />
    <path
       sodipodi:nodetypes="ccaccsc"
       inkscape:connector-curvature="0"
       id="path5778"
       d="m 971.35598,1085.239 -0.70414,68.4138 c 0,0 5.66697,0.9427 8.52067,0.8639 3.06577,-0.085 9.08871,-1.4319 9.08871,-1.4319 l 1.84022,-67.2777 c 0,0 -2.19112,-4.1602 -9.2248,-3.9527 -7.9121,0.2334 -9.52066,3.3846 -9.52066,3.3846 z"
       style="fill:url(#linearGradient5786);fill-opacity:1;stroke:none" />
    <path
       style="fill:url(#linearGradient5790);fill-opacity:1;stroke:none"
       d="m 1376.2374,1086.444 1.2958,52.4138 c 0,0 5.667,0.9427 8.5207,0.8639 3.0658,-0.085 9.0887,-1.4319 9.0887,-1.4319 l -0.1598,-51.2777 c 0,0 -2.1911,-4.1602 -9.2248,-3.9527 -7.9121,0.2334 -9.5206,3.3846 -9.5206,3.3846 z"
       id="path5788"
       inkscape:connector-curvature="0"
       sodipodi:nodetypes="ccaccsc" />
    <path
       style="fill:url(#linearGradient5800);fill-opacity:1;stroke:none"
       d="m 971.35598,1085.239 -0.70414,68.4138 c 0,0 5.66697,0.9427 8.52067,0.8639 3.06577,-0.085 9.08871,-1.4319 9.08871,-1.4319 l 1.84022,-67.2777 c 0,0 -2.19112,-4.1602 -9.2248,-3.9527 -7.9121,0.2334 -9.52066,3.3846 -9.52066,3.3846 z"
       id="path5792"
       inkscape:connector-curvature="0"
       sodipodi:nodetypes="ccaccsc" />
    <path
       id="path5888"
       d="m 703.90625,1082.2812 1.78125,75.2813 c 1.95902,-0.1416 3.86258,-0.3238 5.65625,-0.625 0.87617,-2.4485 0.12414,-6.52 0.375,-9.5937 0.0273,-21.6194 -0.0515,-43.2694 0.0312,-64.8438 -2.61431,-0.092 -5.22884,-0.1431 -7.84375,-0.2188 z m 7.5,63.9063 c 0.36669,4.4829 -0.2558,5.1692 0,0 z"
       style="fill:url(#linearGradient5900);fill-opacity:1;stroke:none"
       inkscape:connector-curvature="0" />
    <path
       id="path5999"
       d="m 984.54331,1151.6315 c 1.2256,-0.9304 1.75,-2.7227 1.75,-5.9816 l 0,-4.6532 -3.6221,1.5134 c -1.99229,0.8324 -4.6657,1.5134 -5.9411,1.5134 -2.97759,0 -3.9751,1.6374 -2.27299,3.7311 1.1572,1.4234 1.10179,1.5556 -0.4139,0.9876 -1.2818,-0.4804 -1.75,-0.1488 -1.75,1.2394 0,2.9743 8.92219,4.176 12.25009,1.6499 z"
       style="opacity:0.4;fill:#ffffff"
       inkscape:connector-curvature="0" />
    <path
       id="path5965"
       d="m 988.08542,1093.2749 -0.2921,-7.7484 -4.2553,-0.8948 c -2.5539,-0.537 -5.5525,-0.524 -7.5,0.033 -3.232,0.9237 -3.2459,0.9556 -3.5377,8.1011 l -0.293,7.1738 4.9108,-0.5816 c 2.8478,-0.3373 5.7015,-0.1223 6.793,0.5116 4.0014,2.3242 4.4818,1.5652 4.1743,-6.5943 z"
       style="opacity:0.4;fill:#ffffff"
       inkscape:connector-curvature="0" />
    <path
       id="path5993"
       d="m 1390.6431,1136.2585 c 3.1301,-0.9378 3.866,-1.6278 3.866,-3.625 0,-2.2294 -0.3007,-2.4066 -3.125,-1.8417 -1.7187,0.3437 -5.575,0.625 -8.5696,0.625 -5.046,0 -5.4211,0.1617 -5.125,2.209 0.497,3.4357 6.322,4.6195 12.9536,2.6327 z"
       style="opacity:0.4;fill:#ffffff"
       inkscape:connector-curvature="0" />
    <path
       id="path5961"
       d="m 1388.7547,1091.9782 c 3.9058,0.5142 4.8607,0.3249 5.3957,-1.0694 1.1726,-3.0557 -7.2853,-6.1558 -12.8725,-4.7182 -2.7116,0.6977 -3.3215,1.3763 -3.5782,3.9807 -0.3071,3.1154 -0.2838,3.1321 3,2.1609 1.8202,-0.5384 5.4449,-0.6977 8.055,-0.354 z"
       style="opacity:0.4;fill:#ffffff"
       inkscape:connector-curvature="0" />
    <rect
       ry="3.6876307"
       y="1096.5999"
       x="631.66541"
       height="20.449589"
       width="53.396175"
       id="rect6081"
       style="fill:url(#radialGradient6089);fill-opacity:1;stroke:none" />
  </g>
</svg>
